<svg width="41" height="41" viewBox="0 0 41 41" fill="none" xmlns="http://www.w3.org/2000/svg">
<g clip-path="url(#clip0_3432_2638)">
<path d="M37.2727 40.0172H30.6335L31.0994 34.4263H27.8381L27.3722 40.0172H13.6278L13.1619 34.4263H9.90057L10.3665 40.0172H3.72727L0 15.79L9.31818 0.880859H31.6818L41 15.79L37.2727 40.0172ZM29.8182 8.3354H23.8279L24.2273 11.1309H16.7727L17.1721 8.3354H11.1818L7.45455 15.79L9.31818 30.699H31.6818L33.5455 15.79L29.8182 8.3354ZM26.5568 25.7511C26.0422 25.7511 25.625 24.1991 25.625 22.2847C25.625 20.3703 26.0422 18.8184 26.5568 18.8184C27.0714 18.8184 27.4886 20.3703 27.4886 22.2847C27.4886 24.1991 27.0714 25.7511 26.5568 25.7511ZM14.7926 26.04C14.278 26.04 13.8608 24.488 13.8608 22.5736C13.8608 20.6592 14.278 19.1072 14.7926 19.1072C15.3072 19.1072 15.7244 20.6592 15.7244 22.5736C15.7244 24.488 15.3072 26.04 14.7926 26.04Z" fill="#444444"/>
</g>
<defs>
<clipPath id="clip0_3432_2638">
<rect width="41" height="41" fill="white"/>
</clipPath>
</defs>
</svg>
