<svg width="41" height="41" viewBox="0 0 41 41" fill="none" xmlns="http://www.w3.org/2000/svg">
<g clip-path="url(#clip0_3432_2631)">
<path d="M20.5004 41.0002C17.3997 41.0002 14.6134 38.0482 12.8573 32.901C12.7841 32.6864 12.7992 32.4516 12.8991 32.2482C12.9991 32.0447 13.1757 31.8893 13.3903 31.8162C13.6048 31.743 13.8396 31.758 14.0431 31.858C14.2465 31.958 14.4019 32.1346 14.4751 32.3492C15.9562 36.6969 18.2095 39.2918 20.5004 39.2918C22.4325 39.2918 23.929 37.5169 24.8429 36.0306C24.9017 35.9351 24.9788 35.852 25.0696 35.7862C25.1605 35.7204 25.2635 35.6731 25.3726 35.6471C25.4817 35.6211 25.5949 35.6168 25.7057 35.6346C25.8165 35.6523 25.9227 35.6917 26.0183 35.7505C26.1138 35.8092 26.1969 35.8863 26.2627 35.9771C26.3285 36.068 26.3758 36.171 26.4018 36.2801C26.4278 36.3892 26.4321 36.5024 26.4143 36.6132C26.3966 36.724 26.3572 36.8302 26.2984 36.9258C24.6584 39.5908 22.6546 41.0002 20.5004 41.0002ZM28.2972 29.896C28.1705 29.896 28.0453 29.8678 27.9308 29.8135C27.8163 29.7592 27.7153 29.6802 27.635 29.5822C27.5548 29.4841 27.4973 29.3694 27.4668 29.2464C27.4362 29.1234 27.4334 28.9952 27.4584 28.871C27.9419 26.505 28.1862 23.9766 28.1862 21.3543C28.1879 11.6322 24.667 3.41683 20.5004 3.41683C20.2738 3.41683 20.0566 3.32684 19.8964 3.16665C19.7362 3.00646 19.6462 2.7892 19.6462 2.56266C19.6462 2.33612 19.7362 2.11886 19.8964 1.95868C20.0566 1.79849 20.2738 1.7085 20.5004 1.7085C25.7689 1.7085 29.8962 10.3373 29.8962 21.3543C29.8962 24.0911 29.6399 26.7339 29.1343 29.2127C29.0949 29.4056 28.9901 29.579 28.8375 29.7035C28.685 29.828 28.4941 29.896 28.2972 29.896Z" fill="#2CB7E4"/>
<path d="M20.4997 5.125C19.0869 5.125 17.9372 3.97529 17.9372 2.5625C17.9372 1.14971 19.0869 0 20.4997 0C21.9125 0 23.0622 1.14971 23.0622 2.5625C23.0622 3.97529 21.9125 5.125 20.4997 5.125ZM20.4997 1.70833C20.2731 1.70833 20.0559 1.79833 19.8957 1.95851C19.7355 2.1187 19.6455 2.33596 19.6455 2.5625C19.6455 2.78904 19.7355 3.0063 19.8957 3.16649C20.0559 3.32667 20.2731 3.41667 20.4997 3.41667C20.7262 3.41667 20.9435 3.32667 21.1037 3.16649C21.2638 3.0063 21.3538 2.78904 21.3538 2.5625C21.3538 2.33596 21.2638 2.1187 21.1037 1.95851C20.9435 1.79833 20.7262 1.70833 20.4997 1.70833ZM20.4997 23.9303C19.0869 23.9303 17.9372 22.7806 17.9372 21.3678C17.9372 19.955 19.0869 18.8053 20.4997 18.8053C21.9125 18.8053 23.0622 19.955 23.0622 21.3678C23.0622 22.7806 21.9125 23.9303 20.4997 23.9303ZM20.4997 20.5137C20.2731 20.5137 20.0559 20.6037 19.8957 20.7638C19.7355 20.924 19.6455 21.1413 19.6455 21.3678C19.6455 21.5944 19.7355 21.8116 19.8957 21.9718C20.0559 22.132 20.2731 22.222 20.4997 22.222C20.7262 22.222 20.9435 22.132 21.1037 21.9718C21.2638 21.8116 21.3538 21.5944 21.3538 21.3678C21.3538 21.1413 21.2638 20.924 21.1037 20.7638C20.9435 20.6037 20.7262 20.5137 20.4997 20.5137ZM33.4232 22.4287C33.2615 22.4285 33.1032 22.3824 32.9667 22.2958C32.8302 22.2092 32.7211 22.0856 32.652 21.9394C32.583 21.7933 32.5568 21.6305 32.5766 21.47C32.5964 21.3096 32.6613 21.158 32.7638 21.033C35.6782 17.4814 36.6964 14.1997 35.4903 12.2522C34.5182 10.6856 32.3657 10.3166 30.7326 10.2825C30.6204 10.2802 30.5098 10.2559 30.407 10.2109C30.3042 10.166 30.2113 10.1012 30.1335 10.0202C30.0558 9.93934 29.9948 9.84391 29.9539 9.73941C29.9131 9.63491 29.8932 9.52338 29.8955 9.41121C29.9043 9.18611 30 8.97318 30.1625 8.81711C30.3249 8.66104 30.5415 8.57395 30.7668 8.57412C33.7153 8.63392 35.8507 9.594 36.9407 11.3519C38.5755 13.9895 37.5335 17.9119 34.0843 22.1161C34.004 22.2137 33.9031 22.2924 33.7888 22.3464C33.6745 22.4004 33.5496 22.4286 33.4232 22.4287ZM4.2705 32.4583C4.12495 32.4586 3.98178 32.4215 3.85466 32.3506C3.72754 32.2797 3.62074 32.1774 3.54446 32.0535C0.768417 27.5759 5.92929 19.5211 15.2927 13.7179C17.9577 12.066 20.7935 10.7232 23.491 9.83487C23.7053 9.76744 23.9376 9.78717 24.1374 9.88979C24.3373 9.99242 24.4887 10.1697 24.5588 10.3831C24.629 10.5966 24.6121 10.8291 24.512 11.0303C24.4119 11.2314 24.2365 11.385 24.024 11.4578C21.4529 12.3034 18.7435 13.5864 16.193 15.1683C7.92804 20.2916 2.80133 27.6118 4.99654 31.1532C5.07699 31.2826 5.12136 31.4311 5.12506 31.5834C5.12876 31.7357 5.09166 31.8863 5.01759 32.0194C4.94353 32.1525 4.8352 32.2635 4.70383 32.3406C4.57247 32.4178 4.42286 32.4584 4.2705 32.4583Z" fill="#2CB7E4"/>
<path d="M4.27635 34.1668C4.07989 34.1668 3.88343 34.1429 3.68697 34.0968C3.19409 33.9807 2.74665 33.7212 2.40113 33.351C2.05562 32.9808 1.82752 32.5166 1.74564 32.0169C1.66376 31.5172 1.73176 31.0044 1.94106 30.5433C2.15036 30.0823 2.49158 29.6935 2.92164 29.4262C3.20738 29.2482 3.52545 29.1284 3.8576 29.0737C4.18974 29.0189 4.52943 29.0303 4.85718 29.1071C5.18493 29.1839 5.49428 29.3247 5.76751 29.5213C6.04073 29.718 6.27244 29.9666 6.44935 30.253C6.8098 30.8339 6.92255 31.5223 6.7671 32.1869C6.69106 32.5147 6.55074 32.8243 6.35427 33.0976C6.15781 33.3709 5.90909 33.6025 5.62251 33.779C5.21939 34.0328 4.75268 34.1672 4.27635 34.1668ZM3.82193 30.8783C3.62968 30.9981 3.49267 31.1892 3.44082 31.4097C3.38897 31.6303 3.42649 31.8624 3.54518 32.0553C3.63522 32.1976 3.76515 32.3102 3.91876 32.3791C4.07237 32.448 4.24287 32.4702 4.409 32.4429C4.57513 32.4156 4.72955 32.34 4.85299 32.2255C4.97643 32.111 5.06345 31.9627 5.10318 31.7991C5.14162 31.6347 5.13048 31.4626 5.07117 31.3045C5.01185 31.1464 4.90703 31.0095 4.76993 30.911C4.63283 30.8124 4.46961 30.7568 4.30089 30.7509C4.13216 30.7451 3.96549 30.7894 3.82193 30.8783ZM5.08097 19.265C4.9329 19.2652 4.78734 19.2268 4.65855 19.1538C4.52977 19.0807 4.4222 18.9754 4.34639 18.8482C2.5031 15.7629 2.1563 12.9527 3.36751 10.9335C4.9648 8.27532 8.92814 7.40749 14.2462 8.55207C14.3587 8.57276 14.4659 8.61584 14.5614 8.67874C14.657 8.74164 14.7389 8.8231 14.8023 8.91827C14.8658 9.01343 14.9095 9.12038 14.9308 9.23276C14.9522 9.34514 14.9508 9.46066 14.9266 9.57246C14.9025 9.68427 14.8561 9.79009 14.7903 9.88365C14.7245 9.9772 14.6405 10.0566 14.5434 10.1171C14.4464 10.1776 14.3381 10.218 14.2251 10.2358C14.1122 10.2537 13.9967 10.2487 13.8857 10.2211C9.39622 9.2542 6.0103 9.8487 4.83155 11.8116C3.9586 13.2637 4.3071 15.4503 5.81214 17.9701C5.89018 18.0997 5.93242 18.2476 5.93455 18.3988C5.93668 18.5501 5.89862 18.6991 5.82426 18.8308C5.7499 18.9625 5.6419 19.0721 5.51131 19.1484C5.38072 19.2247 5.23221 19.2649 5.08097 19.265ZM30.4156 34.0438C29.7379 34.0414 29.0609 34.0009 28.3878 33.9225C24.3971 33.463 19.7726 31.7529 15.3668 29.1067C13.1628 27.7918 11.0917 26.266 9.18268 24.5506C9.09945 24.4752 9.03188 24.3842 8.98383 24.2827C8.93578 24.1812 8.90819 24.0713 8.90264 23.9591C8.89143 23.7326 8.97065 23.5109 9.12289 23.3428C9.27512 23.1747 9.4879 23.074 9.7144 23.0628C9.82655 23.0572 9.9387 23.0738 10.0444 23.1116C10.1502 23.1494 10.2474 23.2077 10.3307 23.283C12.157 24.9237 14.1383 26.3832 16.2466 27.641C20.4474 30.1659 24.8276 31.7922 28.5825 32.2244C32.0556 32.6276 34.6044 31.9187 35.5816 30.2906C35.6382 30.1923 35.7139 30.1063 35.8042 30.0376C35.8945 29.9689 35.9976 29.9188 36.1074 29.8904C36.2173 29.8619 36.3317 29.8557 36.444 29.872C36.5563 29.8882 36.6642 29.9267 36.7615 29.9852C36.8587 30.0436 36.9434 30.1208 37.0105 30.2124C37.0775 30.3039 37.1257 30.4078 37.1522 30.5182C37.1786 30.6285 37.1828 30.743 37.1645 30.855C37.1462 30.967 37.1058 31.0742 37.0456 31.1704C35.9164 33.0513 33.5982 34.0438 30.4156 34.0438Z" fill="#2CB7E4"/>
<path d="M36.3107 33.2935C35.7392 33.2943 35.184 33.1034 34.7339 32.7512C34.2838 32.399 33.965 31.906 33.8284 31.3511C33.7459 31.0245 33.7291 30.6848 33.779 30.3516C33.8288 30.0185 33.9444 29.6986 34.1189 29.4104C34.4708 28.8245 35.0311 28.4093 35.6939 28.2436C36.0204 28.1599 36.3604 28.1424 36.6937 28.1923C37.027 28.2422 37.347 28.3584 37.6346 28.5341C38.2206 28.886 38.6357 29.4463 38.8014 30.1091C38.9671 30.772 38.8646 31.4621 38.5127 32.0481C38.2845 32.4282 37.9617 32.7428 37.5758 32.961C37.1899 33.1793 36.754 33.2938 36.3107 33.2935ZM35.875 31.4621C36.02 31.5475 36.1868 31.5883 36.3548 31.5795C36.5228 31.5708 36.6845 31.5128 36.8197 31.4128C36.955 31.3129 37.0579 31.1753 37.1156 31.0174C37.1734 30.8594 37.1833 30.6879 37.1443 30.5243C37.1174 30.4154 37.0691 30.3129 37.0023 30.2229C36.9354 30.1329 36.8513 30.057 36.7548 29.9998C36.6591 29.9414 36.5527 29.9027 36.4418 29.886C36.3309 29.8693 36.2178 29.8748 36.1091 29.9024C35.9438 29.9413 35.7939 30.0288 35.6788 30.1536C35.5638 30.2785 35.4888 30.435 35.4636 30.603C35.4384 30.7709 35.4641 30.9425 35.5375 31.0957C35.6108 31.2489 35.7284 31.3765 35.875 31.4621Z" fill="#2CB7E4"/>
</g>
<defs>
<clipPath id="clip0_3432_2631">
<rect width="41" height="41" fill="white"/>
</clipPath>
</defs>
</svg>
