<svg width="41" height="40" viewBox="0 0 41 40" fill="none" xmlns="http://www.w3.org/2000/svg">
<g clip-path="url(#clip0_3432_2602)">
<path d="M31.4867 0.136085C31.3426 0.208156 31.1264 0.392335 31.0062 0.544483L30.79 0.824757V5.12495V9.42515L31.0062 9.70542C31.4307 10.266 31.3105 10.25 35.875 10.25C40.4395 10.25 40.3193 10.266 40.7437 9.70542L40.96 9.42515V5.12495V0.824757L40.7277 0.528468C40.3193 -0.00805569 40.4154 -4.76837e-05 35.859 -4.76837e-05C32.2234 -4.76837e-05 31.7189 0.0159674 31.4867 0.136085ZM39.7188 5.12495V8.9687H35.875H32.0312V5.12495V1.2812H35.875H39.7188V5.12495Z" fill="#EC575D"/>
<path d="M0.736719 3.97983C0.592578 4.05191 0.376367 4.23608 0.25625 4.38823L0.0400391 4.66851V8.9687V13.2689L0.25625 13.5492C0.680664 14.1097 0.560547 14.0937 5.125 14.0937C9.68945 14.0937 9.56934 14.1097 9.99375 13.5492L10.21 13.2689V8.9687V4.66851L9.97773 4.37222C9.56934 3.83569 9.66543 3.8437 5.10898 3.8437C1.47344 3.8437 0.968945 3.85972 0.736719 3.97983Z" fill="#EC575D"/>
<path d="M14.1898 3.97983C14.0457 4.05191 13.8295 4.23608 13.7094 4.38823L13.4932 4.66851V8.9687V13.2689L13.7094 13.5492C14.1338 14.1097 14.0137 14.0937 18.5781 14.0937C23.1426 14.0937 23.0225 14.1097 23.4469 13.5492L23.6631 13.2689V8.9687V4.66851L23.4309 4.37222C23.0225 3.83569 23.1186 3.8437 18.5621 3.8437C14.9266 3.8437 14.4221 3.85972 14.1898 3.97983Z" fill="#EC575D"/>
<path d="M0.736719 17.433C0.592578 17.505 0.376367 17.6892 0.25625 17.8414L0.0400391 18.1216V22.4218V26.722L0.25625 27.0023C0.680664 27.5628 0.560547 27.5468 5.125 27.5468C9.68945 27.5468 9.56934 27.5628 9.99375 27.0023L10.21 26.722V22.4218V18.1216L9.97773 17.8253C9.56934 17.2888 9.66543 17.2968 5.10898 17.2968C1.47344 17.2968 0.968945 17.3128 0.736719 17.433Z" fill="#EC575D"/>
<path d="M14.1898 17.433C14.0457 17.505 13.8295 17.6892 13.7094 17.8414L13.4932 18.1216V22.4218V26.722L13.7094 27.0023C14.1338 27.5628 14.0137 27.5468 18.5781 27.5468C23.1426 27.5468 23.0225 27.5628 23.4469 27.0023L23.6631 26.722V22.4218V18.1216L23.4309 17.8253C23.0225 17.2888 23.1186 17.2968 18.5621 17.2968C14.9266 17.2968 14.4221 17.3128 14.1898 17.433Z" fill="#EC575D"/>
<path d="M27.643 17.433C27.4988 17.505 27.2826 17.6892 27.1625 17.8414L26.9463 18.1216V22.4218V26.722L27.1625 27.0023C27.5869 27.5628 27.4668 27.5468 32.0312 27.5468C36.5957 27.5468 36.4756 27.5628 36.9 27.0023L37.1162 26.722V22.4218V18.1216L36.884 17.8253C36.4756 17.2888 36.5717 17.2968 32.0152 17.2968C28.3797 17.2968 27.8752 17.3128 27.643 17.433Z" fill="#EC575D"/>
<path d="M0.736719 30.8861C0.592578 30.9582 0.376367 31.1423 0.25625 31.2945L0.0400391 31.5748V35.875V40.1751L0.25625 40.4554C0.680664 41.016 0.560547 41 5.125 41C9.68945 41 9.56934 41.016 9.99375 40.4554L10.21 40.1751V35.875V31.5748L9.97773 31.2785C9.56934 30.7419 9.66543 30.75 5.10898 30.75C1.47344 30.75 0.968945 30.766 0.736719 30.8861Z" fill="#EC575D"/>
<path d="M14.1898 30.8861C14.0457 30.9582 13.8295 31.1423 13.7094 31.2945L13.4932 31.5748V35.875V40.1751L13.7094 40.4554C14.1338 41.016 14.0137 41 18.5781 41C23.1426 41 23.0225 41.016 23.4469 40.4554L23.6631 40.1751V35.875V31.5748L23.4309 31.2785C23.0225 30.7419 23.1186 30.75 18.5621 30.75C14.9266 30.75 14.4221 30.766 14.1898 30.8861Z" fill="#EC575D"/>
<path d="M27.643 30.8861C27.4988 30.9582 27.2826 31.1423 27.1625 31.2945L26.9463 31.5748V35.875V40.1751L27.1625 40.4554C27.5869 41.016 27.4668 41 32.0312 41C36.5957 41 36.4756 41.016 36.9 40.4554L37.1162 40.1751V35.8669C37.1162 31.6468 37.1162 31.5587 36.948 31.3425C36.86 31.2224 36.6838 31.0462 36.5637 30.9582C36.3475 30.79 36.2434 30.79 32.1273 30.774C28.3396 30.75 27.8832 30.766 27.643 30.8861Z" fill="#EC575D"/>
</g>
<defs>
<clipPath id="clip0_3432_2602">
<rect width="41" height="41" fill="white"/>
</clipPath>
</defs>
</svg>
