<svg width="41" height="39" viewBox="0 0 41 39" fill="none" xmlns="http://www.w3.org/2000/svg">
<g clip-path="url(#clip0_3432_2623)">
<path d="M20.1182 24.5351C22.3392 24.5351 24.1397 22.7239 24.1397 20.4897C24.1397 18.2555 22.3392 16.4443 20.1182 16.4443C17.8972 16.4443 16.0967 18.2555 16.0967 20.4897C16.0967 22.7239 17.8972 24.5351 20.1182 24.5351Z" fill="#087EA4"/>
<path d="M20.1184 29.5919C31.2235 29.5919 40.2261 25.5168 40.2261 20.4898C40.2261 15.4629 31.2235 11.3877 20.1184 11.3877C9.01325 11.3877 0.0107422 15.4629 0.0107422 20.4898C0.0107422 25.5168 9.01325 29.5919 20.1184 29.5919Z" stroke="#087EA4"/>
<path d="M12.2819 25.041C17.8344 34.7154 25.8441 40.5205 30.1719 38.007C34.4997 35.4935 33.5068 25.6133 27.9542 15.9389C22.4016 6.26452 14.392 0.459455 10.0642 2.97294C5.7364 5.48642 6.72928 15.3666 12.2819 25.041Z" stroke="#087EA4"/>
<path d="M12.2826 15.9388C6.73002 25.6132 5.73714 35.4935 10.0649 38.0069C14.3928 40.5204 22.4024 34.7154 27.955 25.041C33.5075 15.3666 34.5004 5.48635 30.1726 2.97286C25.8448 0.459383 17.8352 6.26445 12.2826 15.9388Z" stroke="#087EA4"/>
</g>
<defs>
<clipPath id="clip0_3432_2623">
<rect width="44.2368" height="41" fill="white" transform="translate(-2)"/>
</clipPath>
</defs>
</svg>
