<svg viewBox="0 0 20 35" fill="none" xmlns="http://www.w3.org/2000/svg">
  <path
    d="M4.7679 15.6576C4.28205 14.9178 4.18267 14.0455 3.96183 13.2228C3.68578 12.1794 3.44837 11.1249 3.26065 10.0648C3.08398 9.09312 2.97357 8.10486 2.87971 7.12212C2.84658 6.79638 2.76377 6.59762 2.46563 6.45959C1.70925 6.10625 1.11298 5.55967 0.599524 4.90818C0.119195 4.30087 -0.0740377 3.62179 0.0253408 2.86541C0.0860721 2.39061 0.174408 1.9158 0.24066 1.51828C0.963915 1.34713 1.59331 1.19253 2.22271 1.04347C5.61814 0.265001 9.0743 0.0496892 12.5415 0C12.8838 0 13.1212 0.110416 13.3255 0.391988C13.6015 0.772939 13.6623 1.19254 13.712 1.63975C13.7893 2.363 13.8445 3.09177 13.9715 3.80398C14.1426 4.74807 13.861 5.44925 13.0274 5.92958C12.7237 6.10625 12.4256 6.28292 12.0612 6.49824C12.7899 8.82259 13.5574 11.1138 13.8003 13.5541C14.1757 13.6259 14.4959 13.6977 14.8217 13.7584C16.9638 14.1504 18.5373 15.3209 19.5477 17.2366C19.7575 17.6397 19.8679 18.1034 19.9618 18.5562C20.1108 19.2794 19.8237 19.688 19.106 19.8591C17.9079 20.1462 16.6878 20.3836 15.5063 20.7314C14.5346 21.0185 13.6015 21.4271 12.6574 21.7915C12.5194 21.8467 12.3924 21.935 12.2875 21.9958C12.2655 22.0786 12.2379 22.1283 12.2489 22.1614C13.2537 25.0213 13.7451 28.0082 14.3193 30.9674C14.5125 31.9833 14.5788 33.0268 14.6726 34.0537C14.6947 34.269 14.5898 34.4954 14.5401 34.7383C14.2254 34.5892 14.0046 34.3905 13.7782 34.385C13.3697 34.3739 13.2316 34.1255 13.1433 33.8273C12.8838 32.9384 12.6133 32.0496 12.4035 31.1496C11.9839 29.3001 11.614 27.4395 11.1999 25.5899C11.1116 25.1869 10.9349 24.8004 10.7969 24.4085C10.7085 24.16 10.6091 23.9171 10.5429 23.6631C10.4766 23.4091 10.4435 23.1497 10.3773 22.7963C10.0847 22.9122 9.84724 22.9896 9.61536 23.1C7.84311 23.9171 6.02117 24.5741 4.09433 24.9164C3.72443 24.9826 3.35451 25.0655 2.9846 25.0931C2.68095 25.1151 2.36073 25.1151 2.06812 25.0489C1.20684 24.8446 0.770672 24.2428 0.958387 23.3815C1.16267 22.4595 1.42768 21.5375 1.79207 20.6707C2.46011 19.0751 3.37108 17.6121 4.55258 16.3367C4.75134 16.1269 4.87832 15.9226 4.76237 15.6355L4.74029 15.6024L4.7679 15.6521V15.6576ZM3.8238 18.0261C3.56431 18.0372 3.52014 18.1973 3.54775 18.4126C3.5091 18.4181 3.44838 18.4126 3.43181 18.4402C2.87971 19.3015 2.3276 20.1573 2.06259 21.1566C1.908 21.4768 1.7479 21.797 1.59331 22.1172C1.56018 22.3657 1.52705 22.6196 1.49393 22.8681C1.52705 22.8681 1.56018 22.8681 1.59331 22.8681V22.1117C2.00739 21.9074 1.99082 21.5044 2.04603 21.1345C2.54292 20.218 3.03982 19.307 3.53119 18.3905C3.61952 18.2636 3.71338 18.131 3.80172 17.9985C3.87902 17.8495 3.95079 17.7004 4.02809 17.5513C4.17163 17.3857 4.30965 17.2256 4.4532 17.06C4.56362 16.9551 4.66852 16.8446 4.77894 16.7397C4.73477 16.7121 4.69612 16.6845 4.65196 16.6514L4.46976 17.071C4.32621 17.2366 4.18819 17.3968 4.04465 17.5624C3.97287 17.7115 3.89557 17.8605 3.8238 18.0151V18.0261ZM4.85071 18.6335C4.85071 18.6832 4.86176 18.7384 4.86176 18.7881C4.80655 18.8819 4.74582 18.9702 4.69061 19.0641L4.71269 19.031V19.0531C4.53601 19.3181 4.35934 19.5776 4.18819 19.8426L4.21027 19.8315C3.90109 20.494 3.59192 21.151 3.28274 21.8136L3.29931 21.8025C3.24962 21.9406 3.19992 22.0731 3.15024 22.2111L3.1668 22.2C2.94596 22.7135 2.69199 23.2214 2.91284 23.8453C3.12816 23.8067 3.30483 23.8011 3.46494 23.7459C4.46424 23.3981 5.48011 23.0889 6.45182 22.6748C7.90937 22.051 9.33931 21.3498 10.7803 20.6818C12.3041 19.9751 13.861 19.3622 15.4842 18.9261C16.0584 18.7715 16.6381 18.6335 17.2178 18.4954C17.4773 18.4292 17.665 18.3188 17.6374 18.0041C17.5436 16.8778 17.1405 15.9502 16.0308 15.4644C15.4676 15.2159 14.8935 14.9785 14.3193 14.7467C13.9715 14.6086 13.6015 14.3657 13.2648 14.3988C12.7237 14.454 12.5415 14.1117 12.398 13.7805C12.1053 13.0959 11.8072 12.3892 11.6637 11.6604C11.3048 9.8219 11.0287 7.96683 10.7251 6.11729C10.6423 5.60383 10.576 5.09038 10.4822 4.42233C10.8742 4.63765 11.1502 4.78672 11.4539 4.95787C11.7741 4.72599 12.0998 4.49963 12.4145 4.25671C12.7623 3.9917 12.8893 3.64388 12.812 3.20772C12.7458 2.81572 12.6961 2.42372 12.663 2.02621C12.6078 1.30295 12.6022 1.26431 11.89 1.29192C10.6367 1.34713 9.38347 1.42442 8.13572 1.53484C6.66161 1.66735 5.19854 1.86058 3.72994 1.99861C2.84658 2.08142 1.97426 2.36299 0.985994 2.10902C0.985994 2.66112 0.969436 3.16907 0.99152 3.67148C1.00256 3.85919 1.05777 4.07451 1.16819 4.22358C1.67612 4.90267 2.36073 5.32779 3.21097 5.44925C3.9287 5.54863 4.40351 5.6204 4.53602 6.74117C4.74582 8.57415 5.02187 10.3961 5.56293 12.1739C5.83346 13.0572 5.99357 13.9682 6.21441 14.8681C6.29722 15.2049 6.38556 15.5527 6.51806 15.873C6.69474 16.3091 6.67817 16.3974 6.33587 16.7232C6.0543 16.9937 5.77825 17.2753 5.54084 17.5845C5.28687 17.9157 5.07708 18.2801 4.85071 18.6279V18.6335ZM10.1895 0.447202C10.1895 0.447202 10.184 0.43616 10.1785 0.430639H9.53807C9.53807 0.430639 9.53807 0.441681 9.53807 0.447202H10.1895ZM7.58362 0.557612C7.58362 0.557612 7.58362 0.568654 7.58362 0.574175H8.10812C8.10812 0.574175 8.10812 0.563133 8.10812 0.557612H7.58362ZM11.9784 0.292614C11.9784 0.292614 11.9894 0.320206 12.0004 0.331248H12.282C12.282 0.331248 12.282 0.303656 12.282 0.292614H11.9784ZM6.59536 0.7122C6.59536 0.7122 6.59536 0.684608 6.59536 0.673566L6.30826 0.695638C6.30826 0.695638 6.30826 0.706685 6.30826 0.717727H6.59536V0.7122ZM5.44698 0.850226C5.44698 0.850226 5.44698 0.828143 5.44698 0.817101H5.17093C5.17093 0.817101 5.17093 0.839184 5.17093 0.850226H5.44698ZM2.87418 1.22014C2.87418 1.22014 2.83554 1.2367 2.81898 1.24774C2.83554 1.24774 2.85762 1.24774 2.87418 1.24774C2.89075 1.24774 2.90732 1.24223 2.92388 1.2367C2.90732 1.23118 2.89075 1.22566 2.87418 1.22014ZM3.58087 1.11524L3.56984 1.08212C3.53119 1.08212 3.49254 1.08763 3.45389 1.09315C3.45389 1.10419 3.46494 1.12628 3.46494 1.12628C3.50359 1.12628 3.54223 1.12076 3.58087 1.11524ZM4.54154 0.982742C4.50289 0.960658 4.48633 0.93857 4.47529 0.944091C4.43664 0.955133 4.39247 0.9717 4.35382 0.982742H4.54154ZM1.4608 1.51828C1.4608 1.51828 1.49393 1.50724 1.51049 1.50172C1.49945 1.49068 1.48289 1.4741 1.47185 1.4741C1.45528 1.4741 1.43872 1.48516 1.42216 1.48516C1.4332 1.4962 1.44976 1.50171 1.4608 1.51276V1.51828ZM2.27239 1.34161C2.27239 1.34161 2.23926 1.34161 2.21718 1.34161C2.23374 1.35265 2.25583 1.36369 2.27239 1.37473C2.27239 1.36369 2.27239 1.35265 2.27239 1.34161ZM1.01912 1.62869L0.985994 1.60662L0.97495 1.63975L1.01912 1.62869Z"
    fill="#A4E2A3" />
  <path
    d="M4.85059 18.7936C4.85059 18.7383 4.85059 18.6831 4.85059 18.6279C4.85611 18.6611 4.87267 18.6997 4.87267 18.7328C4.87267 18.7494 4.86163 18.7715 4.85611 18.788L4.85059 18.7936Z"
    fill="#A4E2A3" />
  <path d="M4.18262 19.8426C4.18262 19.8426 4.19918 19.8315 4.2047 19.8315L4.18262 19.8426Z" fill="#A4E2A3" />
  <path d="M3.27765 21.8135L3.2666 21.8301L3.28868 21.8025L3.27765 21.8135Z" fill="#A4E2A3" />
  <path d="M3.14483 22.211L3.13379 22.2275L3.15588 22.2L3.14483 22.211Z" fill="#A4E2A3" />
</svg>