<svg width="47" height="35" viewBox="0 0 47 35" fill="none" xmlns="http://www.w3.org/2000/svg">
<path d="M24.6204 27.8667C25.3708 27.0799 26.3891 26.2408 27.0859 25.2443C28.533 23.1464 29.8729 20.996 31.2129 18.8457C33.7319 14.7548 36.251 10.6114 38.9844 6.1534C35.447 7.30725 32.8208 10.2443 28.6402 9.56249C29.0154 8.93312 29.1226 8.40864 29.3906 8.30375C33.5711 6.62543 37.2157 4.10795 40.6459 1.32824C43.4866 -0.927004 44.9337 -0.297635 45.3089 3.11145C45.6841 6.67788 46.4344 10.2443 46.9704 13.8107C47.0776 14.3877 46.8632 15.017 46.8096 15.7513C44.5049 14.7023 44.5049 14.7023 42.5754 6.88767C42.1467 7.56949 41.7715 8.09396 41.4499 8.61844C38.2877 14.0205 35.179 19.4226 31.9096 24.7723C30.8377 26.503 29.5513 28.1289 28.1042 29.545C25.5316 32.0625 22.6909 31.9576 20.279 29.2827C19.0463 27.9191 18.1352 26.2408 17.3312 24.5625C16.4201 22.6744 15.8305 20.6289 15.0265 18.6883C14.437 17.3247 13.6866 16.0135 12.9898 14.5974C11.3283 15.2268 10.6852 16.4331 9.9348 17.5345C6.77257 22.2023 4.4143 27.1848 2.64559 32.5345C2.43121 33.1638 2.32401 33.8457 1.94883 34.4226C1.73444 34.7373 1.14487 34.9995 0.716095 34.9995C0.501706 34.9995 0.0729278 34.4226 0.0193307 34.1079C-0.0342664 33.2163 0.0193356 32.2198 0.233724 31.3806C1.73444 25.3492 4.25351 19.7373 7.84451 14.6499C8.54128 13.6009 9.45243 12.6569 10.4172 11.8702C12.1859 10.4541 13.9546 10.5065 15.4017 12.2373C16.5808 13.6534 17.4384 15.3317 18.1888 17.01C19.3143 19.4751 20.1183 22.045 21.2438 24.51C21.887 25.8212 22.6373 27.1848 24.6204 27.8667Z" fill="#A2A2FC"/>
</svg>
