<svg viewBox="0 0 60 97" fill="none" xmlns="http://www.w3.org/2000/svg">
  <path d="M0.189762 1.6739C1.92928 1.24043 3.55518 0.508149 5.27258 0.311098C7.75082 0.0527382 10.3048 -0.00641566 12.8146 0.407271C28.3024 2.84013 41.7126 9.82522 51.0436 22.5797C60.4881 35.633 62.5831 50.569 56.7605 65.8938C53.868 73.606 49.3688 80.3331 43.8058 86.3247C42.7607 87.4061 41.8135 88.4504 40.1749 90.3275C43.5055 90.5431 46.0374 90.7203 48.6671 90.8604C48.6829 91.1964 48.7965 91.4952 48.8501 91.9308C48.2029 92.291 47.6315 92.8503 46.9085 93.0112C43.3695 94.015 39.7926 94.9191 36.2156 95.8233C33.851 96.3804 31.4264 97.0744 29.5009 94.9565C27.4395 92.7762 28.0743 90.0268 29.0942 87.7008C30.5719 84.5168 32.419 81.4203 34.304 78.4234C34.7397 77.8017 35.9677 77.7907 36.8485 77.4558C37.1894 78.3522 37.8997 79.3362 37.7354 80.0827C37.1449 82.3593 36.1471 84.4488 35.2251 86.7375C35.5566 86.7255 35.8281 86.8502 35.8881 86.7134C54.465 70.7569 61.2257 49.9452 50.3391 28.0918C49.8246 27.0334 49.2122 26.0122 48.4041 25.0654C37.8136 11.6499 24.2362 3.93037 7.3339 2.49138C5.13351 2.30207 2.82889 2.72242 0.546391 2.90635C0.394889 2.50794 0.341264 2.07231 0.189762 1.6739Z" fill="#A4E2A3" />
</svg>