<svg width="41" height="41" viewBox="0 0 41 41" fill="none" xmlns="http://www.w3.org/2000/svg">
<g clip-path="url(#clip0_3432_2559)">
<path d="M4.1 5.29316C3.53145 5.51738 2.94687 6.10195 2.73066 6.68652C2.57051 7.11895 2.5625 7.27109 2.5625 11.5312C2.5625 15.7914 2.57051 15.9436 2.73066 16.376C2.95488 16.9686 3.53145 17.5451 4.12402 17.7693C4.55645 17.9295 4.70859 17.9375 8.96875 17.9375C13.2289 17.9375 13.3811 17.9295 13.8135 17.7693C14.4061 17.5451 14.9826 16.9686 15.2068 16.376C15.359 15.9756 15.375 15.7594 15.375 14.1498C15.375 12.1639 15.343 12.0197 14.7984 11.6914C14.4381 11.4752 13.7494 11.4752 13.3891 11.6914C12.8605 12.0117 12.8125 12.1959 12.8125 13.8695V15.375H8.96875H5.125V11.5312V7.6875H7.27109C9.26504 7.6875 9.4252 7.67949 9.67344 7.52734C10.0578 7.28711 10.25 6.92676 10.25 6.40625C10.25 5.88574 10.0578 5.52539 9.67344 5.28516C9.4252 5.13301 9.26504 5.125 6.9668 5.13301C4.70859 5.13301 4.49238 5.14902 4.1 5.29316Z" fill="#EFC14A"/>
<path d="M13.6616 6.44639C13.4213 6.53447 12.8127 7.08701 11.1551 8.74463L8.969 10.9228L8.71275 10.6745C7.88794 9.88174 6.56666 10.2421 6.43052 11.2911C6.34244 11.9478 6.43853 12.1479 7.31138 13.0368C7.75982 13.4933 8.22427 13.9177 8.34439 13.9817C8.62466 14.1259 9.31333 14.1259 9.59361 13.9817C9.71373 13.9177 11.043 12.6284 12.5405 11.1149C15.4713 8.16807 15.5274 8.104 15.4153 7.43936C15.3432 7.01494 14.9028 6.51846 14.5104 6.40635C14.134 6.30225 14.046 6.31025 13.6616 6.44639Z" fill="#EFC14A"/>
<path d="M18.5141 7.84766C18.1297 8.08789 17.9375 8.44824 17.9375 8.96875C17.9375 9.48926 18.1297 9.84961 18.5141 10.0898C18.7703 10.25 18.9385 10.25 28.1875 10.25C37.4365 10.25 37.6047 10.25 37.8609 10.0898C38.2453 9.84961 38.4375 9.48926 38.4375 8.96875C38.4375 8.44824 38.2453 8.08789 37.8609 7.84766C37.6047 7.6875 37.4365 7.6875 28.1875 7.6875C18.9385 7.6875 18.7703 7.6875 18.5141 7.84766Z" fill="#EFC14A"/>
<path d="M18.5141 12.9727C18.1297 13.2129 17.9375 13.5732 17.9375 14.0938C17.9375 14.6143 18.1297 14.9746 18.5141 15.2148C18.7703 15.367 18.9305 15.375 24.9844 15.375C31.0383 15.375 31.1984 15.367 31.4547 15.2148C31.8391 14.9746 32.0312 14.6143 32.0312 14.0938C32.0312 13.5732 31.8391 13.2129 31.4547 12.9727C31.1984 12.8205 31.0383 12.8125 24.9844 12.8125C18.9305 12.8125 18.7703 12.8205 18.5141 12.9727Z" fill="#EFC14A"/>
<path d="M4.1 23.2307C3.53145 23.4549 2.94687 24.0395 2.73066 24.624C2.57051 25.0564 2.5625 25.2086 2.5625 29.4688C2.5625 33.7289 2.57051 33.8811 2.73066 34.3135C2.95488 34.9061 3.53145 35.4826 4.12402 35.7068C4.55645 35.867 4.70859 35.875 8.96875 35.875C13.2289 35.875 13.3811 35.867 13.8135 35.7068C14.4061 35.4826 14.9826 34.9061 15.2068 34.3135C15.367 33.8811 15.375 33.7289 15.375 29.4688C15.375 25.2086 15.367 25.0564 15.2068 24.624C14.9826 24.0314 14.4061 23.4549 13.8135 23.2307C13.3811 23.0705 13.2369 23.0625 8.94473 23.0705C4.70059 23.0705 4.5084 23.0785 4.1 23.2307ZM12.8125 29.4688V33.3125H8.96875H5.125V29.4688V25.625H8.96875H12.8125V29.4688Z" fill="#EFC14A"/>
<path d="M18.5141 25.7852C18.1297 26.0254 17.9375 26.3857 17.9375 26.9062C17.9375 27.4268 18.1297 27.7871 18.5141 28.0273C18.7703 28.1875 18.9385 28.1875 28.1875 28.1875C37.4365 28.1875 37.6047 28.1875 37.8609 28.0273C38.2453 27.7871 38.4375 27.4268 38.4375 26.9062C38.4375 26.3857 38.2453 26.0254 37.8609 25.7852C37.6047 25.625 37.4365 25.625 28.1875 25.625C18.9385 25.625 18.7703 25.625 18.5141 25.7852Z" fill="#EFC14A"/>
<path d="M18.5141 30.9102C18.1297 31.1504 17.9375 31.5107 17.9375 32.0312C17.9375 32.5518 18.1297 32.9121 18.5141 33.1523C18.7703 33.3045 18.9305 33.3125 24.9844 33.3125C31.0383 33.3125 31.1984 33.3045 31.4547 33.1523C31.8391 32.9121 32.0312 32.5518 32.0312 32.0312C32.0312 31.5107 31.8391 31.1504 31.4547 30.9102C31.1984 30.758 31.0383 30.75 24.9844 30.75C18.9305 30.75 18.7703 30.758 18.5141 30.9102Z" fill="#EFC14A"/>
</g>
<defs>
<clipPath id="clip0_3432_2559">
<rect width="41" height="41" fill="white"/>
</clipPath>
</defs>
</svg>
