<svg width="41" height="41" viewBox="0 0 41 41" fill="none" xmlns="http://www.w3.org/2000/svg">
<g clip-path="url(#clip0_3432_2571)">
<path d="M9.55332 3.29121C9.02481 3.49141 8.52832 3.97989 8.26406 4.54844L8.04785 5.00488L8.02383 9.26504L7.99981 13.5332H4.23613H0.464453L0.232227 13.7654L0 13.9977V22.4459V30.8861L0.200195 31.0863C0.312305 31.1984 0.5125 31.3105 0.648633 31.3426C0.792773 31.3666 2.49844 31.3906 4.45234 31.3906H7.99981L8.02383 34.4016L8.04785 37.4125L8.31211 37.6447L8.56836 37.877H12.9006H17.2328L17.465 37.6447C17.8414 37.2604 17.7613 36.6037 17.2969 36.3314C17.0967 36.2113 16.6803 36.1953 13.3811 36.1953H9.68945V33.793V31.3906H13.277C15.4791 31.3906 16.9686 31.3586 17.1527 31.3105C17.3129 31.2625 17.5211 31.1344 17.6172 31.0143C17.7773 30.8061 17.7773 30.75 17.7773 22.4059V13.9977L17.5451 13.7654L17.3129 13.5332H13.5012H9.68945V9.56934C9.68945 5.30918 9.69746 5.21309 10.0979 4.93281C10.266 4.81269 11.1869 4.80469 20.5 4.80469C29.8131 4.80469 30.734 4.81269 30.9022 4.93281C31.2225 5.16504 31.3106 5.51738 31.3106 6.60645V7.60742H25.665C19.3949 7.60742 19.6432 7.5834 19.4109 8.12793C19.2428 8.53633 19.2428 23.4148 19.4109 23.8232C19.6432 24.3678 19.3949 24.3438 25.665 24.3438H31.3106V25.9773V27.6189L28.0113 27.643C24.7602 27.667 24.6961 27.667 24.3438 27.8512C23.7912 28.1234 23.4469 28.4438 23.1826 28.9162L22.9424 29.3486V31.1504V32.9521L23.1826 33.3846C23.4389 33.849 23.8953 34.2654 24.3918 34.4896C24.6721 34.6178 25.0484 34.6338 28.0113 34.6578L31.3106 34.6818V35.4426V36.1953H27.627C23.623 36.1953 23.599 36.1953 23.3988 36.6357C23.2307 37.0121 23.2787 37.3885 23.535 37.6447L23.7672 37.877H28.0994H32.4316L32.6879 37.6447L32.9522 37.4125L32.9762 36.0512L33.0002 34.6898L34.3375 34.6578C35.5627 34.6338 35.7068 34.6178 36.0752 34.4336C36.6197 34.1693 37.1082 33.6408 37.3084 33.1043C37.4606 32.7199 37.4766 32.4877 37.4766 31.1504C37.4766 29.8131 37.4606 29.5809 37.3084 29.1965C37.1082 28.66 36.6197 28.1314 36.0752 27.8672C35.7068 27.691 35.5547 27.675 34.3375 27.643L32.9922 27.6109V25.9773V24.3438H36.6758C40.6156 24.3438 40.7117 24.3357 40.9199 23.9514C41.032 23.7271 41.032 8.21602 40.9119 7.9918C40.7117 7.62344 40.5195 7.60742 36.6438 7.60742H33.0082L32.9762 6.30215C32.9522 5.10098 32.9361 4.97285 32.7359 4.54844C32.4637 3.96387 31.9752 3.49141 31.4227 3.2832C30.9902 3.12305 30.8701 3.12305 20.476 3.13105C10.1859 3.13105 9.96172 3.13105 9.55332 3.29121ZM39.3184 15.9756V22.6621H37.6127H35.907L31.4787 18.5141C29.0443 16.2398 26.8502 14.2379 26.61 14.0777C25.9854 13.6453 25.2887 13.4531 24.3838 13.4531C23.1826 13.4531 22.3578 13.7814 21.4529 14.6303L21.0605 14.9986V12.1398V9.28906H30.1895H39.3184V15.9756ZM25.4328 15.359C25.6971 15.4951 33.3125 22.518 33.3125 22.6301C33.3125 22.6461 30.5578 22.6621 27.1865 22.6621H21.0605V19.9955V17.3369L21.9975 16.4641C23.0225 15.5111 23.1666 15.407 23.607 15.2469C24.0395 15.0787 25.0164 15.1428 25.4328 15.359ZM16.0957 22.4219V29.6289H8.88867H1.68164V22.4219V15.2148H8.88867H16.0957V22.4219ZM35.5627 29.6129L35.7949 29.8691V31.1504V32.4316L35.5627 32.6879L35.3305 32.9521H30.1895H25.0484L24.8162 32.6879L24.584 32.4316V31.1584C24.584 29.9813 24.6 29.8771 24.7522 29.677C24.8482 29.5568 25.0004 29.4207 25.0965 29.3887C25.1846 29.3486 27.5309 29.3246 30.2936 29.3326L35.3305 29.3486L35.5627 29.6129Z" fill="#6DD96B"/>
<path d="M33.2484 11.0508C33.0162 11.1309 32.7119 11.275 32.5598 11.3631C32.1273 11.6354 31.4787 12.3801 31.2465 12.8686C31.0463 13.293 31.0303 13.4211 31.0303 14.2939C31.0303 15.1828 31.0463 15.2869 31.2545 15.7113C31.6068 16.424 32.1834 17.0006 32.8961 17.3529C33.4887 17.6492 33.5287 17.6572 34.3855 17.6572C35.2184 17.6572 35.3064 17.6412 35.7949 17.409C37.1563 16.7523 37.8689 15.5352 37.7729 14.0457C37.6928 12.6604 36.86 11.5553 35.5307 11.0588C34.9221 10.8346 33.857 10.8266 33.2484 11.0508ZM35.3305 12.8605C35.8189 13.1889 36.1393 13.8295 36.0992 14.382C36.0111 15.4711 34.9541 16.2318 33.9211 15.9355C32.6959 15.5912 32.2635 14.0377 33.1363 13.1008C33.6889 12.5162 34.6738 12.4041 35.3305 12.8605Z" fill="#6DD96B"/>
<path d="M6.0459 17.225C5.74961 17.3931 5.60547 17.6494 5.60547 18.0017C5.60547 18.282 5.65352 18.3941 5.8377 18.5863C6.06992 18.8185 6.07793 18.8185 7.03887 18.8185H7.9998L8.02383 23.0306L8.04785 27.2427L8.31211 27.475C8.67246 27.8033 9.12891 27.8033 9.45723 27.475L9.68945 27.2427V23.0306V18.8185H10.6584C11.1869 18.8185 11.6914 18.7785 11.7795 18.7384C11.8596 18.6904 11.9877 18.5462 12.0518 18.4181C12.2359 18.0578 12.2039 17.7375 11.9396 17.4412L11.7074 17.1769L8.95273 17.1609C7.03887 17.1449 6.15801 17.1689 6.0459 17.225Z" fill="#6DD96B"/>
<path d="M20.1395 36.2674C19.7551 36.4275 19.5629 36.948 19.7311 37.3564C19.8753 37.6928 20.1475 37.877 20.4999 37.877C20.8522 37.877 21.1245 37.6928 21.2686 37.3564C21.3967 37.0521 21.3006 36.6197 21.0684 36.4035C20.8842 36.2434 20.3717 36.1633 20.1395 36.2674Z" fill="#6DD96B"/>
</g>
<defs>
<clipPath id="clip0_3432_2571">
<rect width="41" height="41" fill="white"/>
</clipPath>
</defs>
</svg>
