<svg width="40" height="41" viewBox="0 0 40 41" fill="none" xmlns="http://www.w3.org/2000/svg">
<g clip-path="url(#clip0_3432_2579)">
<path d="M0.528516 0.152149C0.408398 0.232227 0.232227 0.408398 0.152148 0.528515C0.00800781 0.752735 0 1.29727 0 20.5C0 39.7027 0.00800781 40.2473 0.152148 40.4715C0.232227 40.5916 0.408398 40.7678 0.528516 40.8479C0.752734 40.992 1.19316 41 15.343 41H29.9252L30.1975 40.8158C30.774 40.4314 30.75 40.6637 30.75 34.9541V29.8291L35.7629 24.8242C38.5176 22.0695 40.8238 19.7232 40.8879 19.6031C41.04 19.3148 41.032 18.3699 40.8719 17.7453C40.5916 16.6723 39.7988 15.5512 38.8779 14.9346C38.0531 14.39 36.7238 14.0217 35.9551 14.1338C35.6107 14.1818 35.4906 14.2859 33.1764 16.6002L30.75 19.0186V13.8295C30.75 8.85664 30.742 8.63242 30.5979 8.34414C30.4457 8.05586 22.8223 0.392384 22.4219 0.128124C22.2457 0.00800705 21.2928 0 11.4912 0C1.11309 0 0.752734 0.00800705 0.528516 0.152149ZM20.5801 5.87774C20.5801 9.34512 20.5801 9.34512 20.7643 9.60938C21.1486 10.1779 21.1086 10.1699 24.8803 10.1699H28.2676V15.8314V21.493L26.0494 23.7352C24.2156 25.593 23.7512 26.1055 23.3908 26.682C22.598 27.9873 22.1176 29.3086 21.9254 30.782L21.8293 31.4947L21.4129 31.6869C20.9164 31.9111 20.0436 32.1113 19.5311 32.1113H19.1627L19.1227 31.5668C19.0346 30.3656 18.2818 29.6689 16.9525 29.5729C15.9516 29.5008 15.0146 29.8131 13.9736 30.5498C12.8686 31.3426 12.6123 31.8791 12.9727 32.6318C13.2449 33.1924 13.9416 33.4566 14.5422 33.2324C14.6543 33.1844 14.9186 33.0082 15.1107 32.832C15.4631 32.5197 16.3439 32.0312 16.5441 32.0312C16.6002 32.0312 16.6643 32.2154 16.6963 32.5277C16.8004 33.4486 17.1447 33.9852 17.8414 34.3295C18.2738 34.5457 18.3539 34.5537 19.4189 34.5537C20.2998 34.5457 20.6922 34.5057 21.2447 34.3695C21.9574 34.1934 22.9584 33.777 23.3668 33.4887C23.4869 33.4006 23.7832 33.3045 24.0234 33.2805C25.3928 33.1043 26.682 32.7279 27.691 32.1914L28.2676 31.8791V35.2344V38.5977H15.335H2.40234V20.5V2.40234H11.4912H20.5801V5.87774ZM24.7842 6.00586L26.4658 7.6875H24.7602H23.0625V6.00586C23.0625 5.07695 23.0705 4.32422 23.0865 4.32422C23.0945 4.32422 23.8633 5.07695 24.7842 6.00586ZM37.3965 16.9605C37.8049 17.2168 38.2934 17.8174 38.4295 18.2418L38.5176 18.5381L33.2164 23.8313C27.659 29.3646 27.4508 29.5568 26.1695 30.1414C25.657 30.3816 24.7521 30.6699 24.5199 30.6699C24.3998 30.6699 24.6961 29.6369 25.0164 28.9402C25.1686 28.6279 25.4408 28.1395 25.625 27.8592C25.8492 27.5229 27.8352 25.4729 31.3025 21.9975C37.2283 16.0557 36.6678 16.5201 37.3965 16.9605Z" fill="#8EC3F4"/>
<path d="M5.76516 12.9887C5.30071 13.2369 5.10051 13.5973 5.14856 14.1578C5.18059 14.6463 5.37278 14.9506 5.77317 15.1508C6.01341 15.2789 6.34173 15.2949 8.91223 15.2949C12.0673 15.2949 12.1554 15.2789 12.4917 14.8145C12.9241 14.2059 12.7159 13.293 12.0593 12.9807C11.739 12.8205 11.5868 12.8125 8.92024 12.8125C6.17356 12.8125 6.1095 12.8125 5.76516 12.9887Z" fill="#8EC3F4"/>
<path d="M6.02187 18.0175C5.50937 18.1377 5.125 18.6582 5.125 19.2187C5.125 19.5951 5.26113 19.8994 5.56543 20.1797L5.78164 20.3798L15.2789 20.4039C24.592 20.4199 24.7922 20.4199 25.0404 20.2597C25.7771 19.8113 25.7451 18.5861 24.9844 18.1377C24.7041 17.9775 24.6 17.9775 15.4951 17.9615C10.4342 17.9615 6.16602 17.9775 6.02187 18.0175Z" fill="#8EC3F4"/>
<path d="M5.67731 23.3268C4.9486 23.8152 4.95661 24.9844 5.70133 25.4248C5.95758 25.585 6.10973 25.585 12.7722 25.585C19.0664 25.585 19.5949 25.577 19.8351 25.4488C20.6199 25.0164 20.6199 23.7752 19.8431 23.3027C19.5869 23.1506 19.4267 23.1426 12.7642 23.1426H5.94958L5.67731 23.3268Z" fill="#8EC3F4"/>
</g>
<defs>
<clipPath id="clip0_3432_2579">
<rect width="41" height="41" fill="white"/>
</clipPath>
</defs>
</svg>
