<svg width="41" height="41" viewBox="0 0 41 41" fill="none" xmlns="http://www.w3.org/2000/svg">
<path d="M15.054 2.13007C13.5965 2.33828 12.6676 2.61855 11.5866 3.1791C8.96802 4.53242 7.07017 7.01484 6.43755 9.92969C6.32544 10.4422 6.2854 10.9467 6.2854 11.9877V13.365L6.00513 13.4131C5.11626 13.5812 3.827 14.358 3.01821 15.2068C-0.232959 18.6582 1.20845 24.3598 5.70884 25.8172C6.21333 25.9773 7.5106 26.1855 8.05513 26.1855C8.14321 26.1855 8.16724 27.1385 8.18325 31.9672L8.20727 37.7568L8.39946 38.0932C8.51157 38.2854 8.73579 38.5336 8.91196 38.6537L9.23228 38.8779L12.5395 38.902C15.7426 38.926 15.8627 38.918 16.2391 38.7578L16.6235 38.5896L16.9838 38.7498C17.3202 38.91 17.5043 38.918 20.5073 38.918C23.6383 38.918 23.6784 38.918 24.0307 38.7418L24.3831 38.5576L24.7434 38.7338C25.0958 38.918 25.1358 38.918 28.2749 38.918C30.493 38.918 31.526 38.8859 31.7182 38.8219C32.1186 38.6857 32.3829 38.4615 32.5991 38.0932L32.7913 37.7568L32.8153 31.9752L32.8393 26.2016L33.4559 26.1455C35.4579 25.9773 36.635 25.4488 37.9163 24.1436C40.9752 21.0365 40.0784 15.7914 36.1625 13.8615C35.4739 13.5172 34.3688 13.2129 33.8243 13.2129H33.4959L33.4479 12.348C33.3918 11.267 33.2317 10.6424 32.7833 9.72949C31.3579 6.79863 27.9465 5.38125 24.8875 6.43828L24.351 6.63047L24.0627 6.19804C23.3741 5.15703 21.9327 3.89179 20.6754 3.21914C19.8426 2.77871 18.5293 2.34629 17.5604 2.20214C16.8477 2.09805 15.5665 2.05801 15.054 2.13007ZM17.5204 3.37128C20.7155 3.87578 23.5583 6.42226 24.4151 9.5373C24.6313 10.3221 24.9356 10.5703 25.392 10.3221C25.7844 10.1139 25.7444 9.65742 25.2159 8.3041C25.0797 7.95976 24.9916 7.65547 25.0157 7.63144C25.1678 7.47129 26.2249 7.28711 26.9456 7.28711C28.4831 7.28711 29.5721 7.71953 30.6532 8.76054C31.7663 9.81758 32.3108 11.1469 32.2547 12.6043L32.2307 13.2449L31.7102 13.373C30.8694 13.5893 30.445 13.8055 30.3809 14.0617C30.3008 14.374 30.437 14.6783 30.6932 14.7664C30.8534 14.8225 31.0375 14.7984 31.4459 14.6703C32.559 14.31 33.4159 14.2459 34.3928 14.4541C36.8032 14.9666 38.5969 17.1848 38.5969 19.6592C38.5969 22.542 36.1866 24.9764 33.3358 24.9844H32.8313V21.1566C32.8313 18.7143 32.7993 17.2248 32.7432 17.0326C32.6952 16.8645 32.535 16.5842 32.3829 16.416C31.8704 15.8555 31.8303 15.8475 28.2028 15.8715L24.9836 15.8955V14.9426C24.9836 14.4221 24.9356 13.8455 24.8875 13.6613C24.7434 13.1969 24.2309 12.7004 23.7665 12.5883C23.278 12.4602 17.6245 12.4602 17.192 12.5803C16.7997 12.6844 16.3512 13.0848 16.167 13.4932C16.0469 13.7494 16.0149 14.0217 16.0149 14.8545V15.8955L12.7557 15.8715L9.49653 15.8555L9.09614 16.0557C8.66372 16.2639 8.37544 16.6082 8.24731 17.0646C8.19927 17.2248 8.16724 18.9225 8.16724 21.1566V24.9844H7.67075C5.6688 24.9764 3.80298 23.7672 2.91411 21.9014C1.8731 19.7312 2.4897 17.0246 4.36352 15.5352C4.94009 15.0787 5.96509 14.5662 6.33345 14.5422C6.57368 14.5342 6.5977 14.5582 6.75786 15.0307C6.85395 15.3029 6.9981 15.5992 7.07817 15.6873C7.39048 16.0236 8.00708 15.7914 8.00708 15.335C8.00708 15.2228 7.93501 14.9025 7.83892 14.6303C7.42251 13.3891 7.3104 11.6434 7.55864 10.298C8.43149 5.68554 12.8278 2.62656 17.5204 3.37128ZM23.6383 13.8295C23.7745 13.9496 23.7825 14.4301 23.7825 25.7051C23.7825 35.7148 23.7665 37.4686 23.6704 37.6047C23.5583 37.7488 23.4301 37.7568 20.5073 37.7568C17.6885 37.7568 17.4483 37.7488 17.3202 37.6127C17.184 37.4766 17.176 36.892 17.176 25.6971C17.176 14.1338 17.176 13.9176 17.3282 13.8055C17.4563 13.7174 18.0249 13.6934 20.4913 13.6934C23.1659 13.6934 23.5022 13.7094 23.6383 13.8295ZM15.9348 17.2088C15.9909 17.3129 16.0149 19.6752 16.0149 24.2957V31.2305H12.6916H9.36841V24.2396C9.36841 18.9064 9.39243 17.2248 9.4645 17.1527C9.53657 17.0807 10.3694 17.0566 12.7077 17.0566C15.7346 17.0566 15.8547 17.0646 15.9348 17.2088ZM31.534 17.1527C31.5981 17.2168 31.6301 17.6893 31.6301 18.7543V20.2598H28.3069H24.9836V18.8104C24.9836 17.9695 25.0157 17.3049 25.0637 17.2088C25.1438 17.0646 25.2639 17.0566 28.2909 17.0566C30.6292 17.0566 31.462 17.0807 31.534 17.1527ZM31.6301 22.1016V22.8223H28.3069H24.9836V22.1576C24.9836 21.7893 25.0077 21.4609 25.0397 21.4369C25.0637 21.4049 26.5612 21.3809 28.3629 21.3809H31.6301V22.1016ZM31.6301 27.627V31.2305H28.3069H24.9836V27.627V24.0234H28.3069H31.6301V27.627ZM15.9989 33.4486L15.9749 34.4736L12.6756 34.4977L9.36841 34.5137V33.4727V32.4316H12.6916H16.0229L15.9989 33.4486ZM31.6301 33.1123V33.793H28.3069H24.9836V33.1123V32.4316H28.3069H31.6301V33.1123ZM31.6141 36.2914C31.5901 37.5887 31.5901 37.5887 31.3899 37.6928C31.2377 37.7729 30.509 37.7969 28.2028 37.7809C25.344 37.7568 25.2079 37.7488 25.0958 37.6047C25.0077 37.4846 24.9836 37.1482 24.9836 36.2193V34.9941H28.3069H31.6301L31.6141 36.2914ZM16.0149 36.5396C16.0149 37.1963 15.9829 37.4926 15.9028 37.6047C15.7907 37.7488 15.6545 37.7568 12.7958 37.7809C10.4895 37.7969 9.76079 37.7729 9.60864 37.6928C9.41645 37.5967 9.40845 37.5646 9.38442 36.6117L9.3604 35.6348H12.6916H16.0149V36.5396Z" fill="#7769CD"/>
<path d="M19.9796 15.2869C19.2509 15.4711 18.6583 15.9596 18.33 16.6242C18.0737 17.1608 18.0657 18.0496 18.33 18.5942C19.0667 20.1076 21.0766 20.452 22.1897 19.2428C22.8544 18.5141 23.0386 17.5451 22.6702 16.6883C22.2378 15.6953 20.9645 15.0307 19.9796 15.2869ZM21.1407 16.5922C21.9175 17.1207 21.8534 18.2979 21.0286 18.6903C20.2038 19.0826 19.2989 18.5221 19.2989 17.6172C19.2989 16.6723 20.372 16.0717 21.1407 16.5922Z" fill="#7769CD"/>
<path d="M18.8584 23.0222L18.6582 23.2144V28.4676C18.6582 33.6086 18.6582 33.7127 18.8184 33.8728C19.0506 34.1051 19.3949 34.1131 19.6432 33.8969C19.7713 33.7767 19.7793 33.4164 19.7793 28.4596V23.1504L19.5711 22.9902C19.2908 22.774 19.0986 22.782 18.8584 23.0222Z" fill="#7769CD"/>
<path d="M21.501 22.9181C21.4129 22.9662 21.3168 23.0463 21.2848 23.0943C21.2527 23.1424 21.2207 25.5607 21.2207 28.4756C21.2207 33.4164 21.2287 33.7767 21.3648 33.8969C21.6051 34.1131 21.9494 34.1051 22.1816 33.8728C22.3418 33.7127 22.3418 33.6086 22.3418 28.4676V23.2144L22.1416 23.0222C21.9334 22.806 21.7492 22.774 21.501 22.9181Z" fill="#7769CD"/>
<path d="M12.051 19.3226C11.5144 19.5068 11.2422 19.675 10.9058 20.0593C10.1291 20.9402 10.1291 22.3015 10.8978 23.1744C12.3953 24.872 15.214 23.6789 15.0379 21.4287C14.9658 20.5879 14.4773 19.8591 13.7486 19.4988C13.2361 19.2586 12.4994 19.1785 12.051 19.3226ZM13.2922 20.5959C13.7006 20.8761 13.8687 21.1484 13.8687 21.5568C13.8767 21.9972 13.6685 22.3896 13.2922 22.6379C12.7396 23.0142 11.9148 22.766 11.6105 22.1414C11.4183 21.741 11.4103 21.5648 11.5785 21.1404C11.8508 20.4677 12.7076 20.2035 13.2922 20.5959Z" fill="#7769CD"/>
</svg>
