<svg width="41" height="41" viewBox="0 0 41 41" fill="none" xmlns="http://www.w3.org/2000/svg">
<path d="M21.901 2.21026C24.5596 2.61065 26.6336 3.64366 28.4754 5.47745C29.9008 6.90284 30.8377 8.49639 31.3662 10.3542L31.5824 11.131L32.4072 11.131C34.4252 11.131 36.0508 11.8357 37.4522 13.3251C37.9807 13.8857 38.1969 14.1899 38.5172 14.8386C39.0857 15.9997 39.2539 16.6964 39.2539 17.9376C39.2539 19.1788 39.0857 19.8755 38.5172 21.0366C37.8365 22.414 36.5152 23.6392 35.0658 24.2478C33.9287 24.7202 33.6324 24.7442 29.4283 24.7442L25.6246 24.7442L25.6246 26.2657L25.6246 27.7952L26.1211 27.7712C26.6096 27.7472 26.6256 27.7392 26.7857 27.4349C27.5545 25.9694 29.5164 25.6171 30.7416 26.7142C31.3262 27.2347 31.5904 27.8273 31.5904 28.588C31.5904 29.1165 31.5504 29.2687 31.3262 29.7331C30.8457 30.7101 30.0049 31.1985 28.9078 31.1345C28.4674 31.1024 28.1951 31.0384 27.9068 30.8942C27.4504 30.654 26.9139 30.1175 26.7537 29.7251L26.6496 29.4689L25.9689 29.4689C25.2242 29.4689 24.8398 29.3487 24.4795 29.0044C24.007 28.564 23.983 28.4599 23.943 26.546L23.9029 24.7843L22.6377 24.7603L21.3805 24.7362L21.3805 31.4308C21.3805 38.6618 21.3965 38.4136 20.9641 38.7099C20.7318 38.878 20.2674 38.87 20.0271 38.7099C19.6107 38.4136 19.6187 38.5497 19.6188 31.3907L19.6188 24.7362L18.3535 24.7603L17.0963 24.7843L17.0563 28.4679C17.0162 32.4958 17.0322 32.3677 16.5197 32.8481C16.1113 33.2325 15.799 33.3126 14.6219 33.3126L13.5408 33.3126L13.3486 33.745C12.9723 34.5698 12.1555 35.1944 11.1945 35.3866C9.5209 35.739 7.83125 34.4177 7.70313 32.664C7.65508 31.9593 7.79121 31.4228 8.16758 30.8302C9.43281 28.8843 12.3156 29.0845 13.3486 31.1905L13.5648 31.631L14.4697 31.631L15.3746 31.631L15.3746 28.1876L15.3746 24.7442L11.5709 24.7442C7.37481 24.7442 7.07051 24.7202 5.94141 24.2478C5.06055 23.8794 4.27578 23.3269 3.54707 22.5501C3.01856 21.9896 2.80235 21.6853 2.48203 21.0366C1.91348 19.8755 1.74531 19.1788 1.74531 17.9376C1.74531 16.7765 1.90547 16.0397 2.37793 15.0228C2.74629 14.246 3.0586 13.8056 3.70723 13.1409C4.98848 11.8276 6.67813 11.131 8.592 11.131L9.4168 11.131L9.63301 10.3542C10.61 6.89483 13.3086 4.01201 16.6959 2.80284C18.0012 2.34639 18.6418 2.23428 20.2193 2.20225C21.0121 2.18624 21.7648 2.19424 21.901 2.21026ZM18.4176 4.07608C16.6078 4.48448 15.0543 5.34932 13.725 6.67862C12.8922 7.51143 12.2996 8.35225 11.8031 9.40128C11.4428 10.17 11.0984 11.2991 11.0023 12.0599C10.9383 12.5724 10.69 12.9327 10.3377 13.0128C10.2096 13.0368 9.83321 13.0048 9.49688 12.9407C8.75215 12.7806 8.20762 12.7806 7.48692 12.9327C5.6211 13.3251 4.00352 14.8946 3.5711 16.7364C3.41094 17.4011 3.41094 18.4741 3.5711 19.1388C3.89942 20.5401 4.94844 21.8614 6.24571 22.494C7.47891 23.0946 6.60606 23.0626 20.4996 23.0626C31.126 23.0626 33.0318 23.0466 33.5123 22.9425C35.3781 22.5501 36.9957 20.9806 37.4281 19.1388C37.5883 18.4741 37.5883 17.4011 37.4281 16.7364C37.0998 15.3351 36.0508 14.0138 34.7535 13.3812C33.6324 12.8366 32.6555 12.7005 31.5023 12.9407C31.166 13.0048 30.7897 13.0368 30.6615 13.0128C30.3092 12.9327 30.0609 12.5724 29.9969 12.0599C29.5164 8.23213 26.2893 4.8128 22.4615 4.06006C21.4605 3.85987 21.4045 3.85186 20.2193 3.88389C19.4986 3.90792 18.858 3.97198 18.4176 4.07608ZM28.5955 27.8993C28.3473 28.0355 28.1871 28.3317 28.1871 28.6761C28.1871 29.0204 28.6355 29.4689 28.9879 29.4689C29.3082 29.4689 29.6686 29.2606 29.7807 29.0124C30.141 28.2116 29.3803 27.4989 28.5955 27.8993ZM10.3137 31.2306C9.92129 31.3427 9.48086 31.8392 9.40879 32.2636C9.28867 32.9683 9.91328 33.713 10.626 33.713C11.3707 33.713 11.8512 33.2726 11.9152 32.5519C11.9713 31.9112 11.691 31.4868 11.0744 31.2626C10.698 31.1345 10.682 31.1345 10.3137 31.2306Z" fill="#2FDBBC"/>
</svg>
