<svg width="41" height="30" viewBox="0 0 41 30" fill="none" xmlns="http://www.w3.org/2000/svg">
<g clip-path="url(#clip0_3432_2682)">
<path d="M40.1537 11.432C39.2304 10.7834 37.1147 10.5401 35.4605 10.8644C35.2682 9.24287 34.3834 7.82401 32.8447 6.5673L31.9599 5.91868L31.3444 6.85108C30.575 8.06724 30.1904 9.76988 30.3058 11.3914C30.3442 11.959 30.5366 12.9725 31.1136 13.8643C30.575 14.1886 29.4595 14.594 27.9977 14.594H0.184944L0.108007 14.9183C-0.161273 16.5399 -0.161273 21.6072 2.99314 25.499C5.37819 28.4583 8.91729 29.9583 13.572 29.9583C23.6507 29.9583 31.1136 25.053 34.6142 16.175C35.9991 16.2156 38.9612 16.175 40.4614 13.1346C40.4999 13.0535 40.5768 12.8914 40.8461 12.2833L41 11.959L40.1537 11.432ZM22.4197 0H18.1882V4.05389H22.4197V0ZM22.4197 4.86467H18.1882V8.91856H22.4197V4.86467ZM17.4188 4.86467H13.1873V8.91856H17.4188V4.86467ZM12.4179 4.86467H8.18639V8.91856H12.4179V4.86467ZM7.41702 9.72934H3.18549V13.7832H7.41702V9.72934ZM12.4179 9.72934H8.18639V13.7832H12.4179V9.72934ZM17.4188 9.72934H13.1873V13.7832H17.4188V9.72934ZM22.4197 9.72934H18.1882V13.7832H22.4197V9.72934ZM27.4206 9.72934H23.1891V13.7832H27.4206V9.72934Z" fill="#2396ED"/>
</g>
<defs>
<clipPath id="clip0_3432_2682">
<rect width="41" height="30" fill="white"/>
</clipPath>
</defs>
</svg>
