<svg width="41" height="40" viewBox="0 0 41 40" fill="none" xmlns="http://www.w3.org/2000/svg">
<path d="M20.5 12.8125C23.3305 12.8125 25.625 10.518 25.625 7.6875C25.625 4.85704 23.3305 2.5625 20.5 2.5625C17.6695 2.5625 15.375 4.85704 15.375 7.6875C15.375 10.518 17.6695 12.8125 20.5 12.8125Z" fill="#ED1C24"/>
<path d="M7.6875 24.3438C9.81034 24.3438 11.5312 22.6228 11.5312 20.5C11.5312 18.3772 9.81034 16.6562 7.6875 16.6562C5.56466 16.6562 3.84375 18.3772 3.84375 20.5C3.84375 22.6228 5.56466 24.3438 7.6875 24.3438Z" fill="#ED1C24"/>
<path d="M29.4688 12.1719C29.8226 12.1719 30.1094 11.8851 30.1094 11.5312C30.1094 11.1774 29.8226 10.8906 29.4688 10.8906C29.1149 10.8906 28.8281 11.1774 28.8281 11.5312C28.8281 11.8851 29.1149 12.1719 29.4688 12.1719Z" fill="#ED1C24"/>
<path d="M14.4219 8.61636C12.8284 7.00679 10.2418 7.00679 8.64829 8.61636C7.05474 10.2259 7.05474 12.8365 8.64829 14.446C10.2418 16.0556 12.8284 16.0556 14.4219 14.446C16.0155 12.8365 16.0155 10.2259 14.4219 8.61636Z" fill="#ED1C24"/>
<path d="M33.3125 21.7812C34.0201 21.7812 34.5938 21.2076 34.5938 20.5C34.5938 19.7924 34.0201 19.2188 33.3125 19.2188C32.6049 19.2188 32.0312 19.7924 32.0312 20.5C32.0312 21.2076 32.6049 21.7812 33.3125 21.7812Z" fill="#ED1C24"/>
<path d="M29.5488 31.4707C30.6103 31.4707 31.4707 30.6103 31.4707 29.5488C31.4707 28.4874 30.6103 27.627 29.5488 27.627C28.4874 27.627 27.627 28.4874 27.627 29.5488C27.627 30.6103 28.4874 31.4707 29.5488 31.4707Z" fill="#ED1C24"/>
<path d="M20.5 35.875C21.9152 35.875 23.0625 34.7277 23.0625 33.3125C23.0625 31.8973 21.9152 30.75 20.5 30.75C19.0848 30.75 17.9375 31.8973 17.9375 33.3125C17.9375 34.7277 19.0848 35.875 20.5 35.875Z" fill="#ED1C24"/>
<path d="M11.5312 32.6719C13.3003 32.6719 14.7344 31.2378 14.7344 29.4688C14.7344 27.6997 13.3003 26.2656 11.5312 26.2656C9.76221 26.2656 8.32812 27.6997 8.32812 29.4688C8.32812 31.2378 9.76221 32.6719 11.5312 32.6719Z" fill="#ED1C24"/>
</svg>
