<svg width="40" height="41" viewBox="0 0 40 41" fill="none" xmlns="http://www.w3.org/2000/svg">
<mask id="mask0_3432_2645" style="mask-type:luminance" maskUnits="userSpaceOnUse" x="5" y="6" width="31" height="29">
<path d="M5.53516 6.71582H35.4652V34.2842H5.53516V6.71582Z" fill="white"/>
</mask>
<g mask="url(#mask0_3432_2645)">
<path d="M5.68359 23.3863C5.76559 23.5257 5.87219 23.6569 6.01159 23.7553L20.501 34.2841L6.00339 23.7553C5.87219 23.6569 5.75739 23.5257 5.68359 23.3863ZM35.3266 23.3863C35.2446 23.5257 35.138 23.6569 34.9986 23.7553C35.1298 23.6569 35.2446 23.5257 35.3266 23.3863ZM10.702 6.90433C10.6528 6.96173 10.6118 7.02733 10.5872 7.10933C10.6118 7.02733 10.6528 6.95353 10.702 6.90433ZM29.6686 6.74854C29.521 6.80594 29.3898 6.92073 29.3324 7.10933C29.3898 6.92893 29.521 6.80594 29.6686 6.74854Z" fill="#FC6D26"/>
</g>
<mask id="mask1_3432_2645" style="mask-type:luminance" maskUnits="userSpaceOnUse" x="5" y="6" width="31" height="29">
<path d="M5.53516 6.71582H35.4652V34.2842H5.53516V6.71582Z" fill="white"/>
</mask>
<g mask="url(#mask1_3432_2645)">
<path d="M26.011 17.3267H14.9902L18.6638 28.6345L20.5006 34.2843L22.3374 28.6345L26.011 17.3267Z" fill="#E24329"/>
</g>
<mask id="mask2_3432_2645" style="mask-type:luminance" maskUnits="userSpaceOnUse" x="5" y="6" width="31" height="29">
<path d="M5.53516 6.71582H35.4652V34.2842H5.53516V6.71582Z" fill="white"/>
</mask>
<g mask="url(#mask2_3432_2645)">
<path d="M14.99 17.3267H7.26562L20.5004 34.2843L18.6636 28.6345L14.99 17.3267Z" fill="#FC6D26"/>
</g>
<mask id="mask3_3432_2645" style="mask-type:luminance" maskUnits="userSpaceOnUse" x="5" y="6" width="31" height="29">
<path d="M5.53516 6.71582H35.4652V34.2842H5.53516V6.71582Z" fill="white"/>
</mask>
<g mask="url(#mask3_3432_2645)">
<path d="M7.2657 17.3267L6.5277 19.6063L5.5929 22.4845C5.4945 22.7961 5.5273 23.1241 5.6831 23.3947C5.7651 23.5341 5.8717 23.6653 6.0111 23.7637L20.5005 34.2843L7.2657 17.3267Z" fill="#FCA326"/>
</g>
<mask id="mask4_3432_2645" style="mask-type:luminance" maskUnits="userSpaceOnUse" x="5" y="6" width="31" height="29">
<path d="M5.53516 6.71582H35.4652V34.2842H5.53516V6.71582Z" fill="white"/>
</mask>
<g mask="url(#mask4_3432_2645)">
<path d="M11.1278 6.71582C10.972 6.71582 10.8162 6.78142 10.7014 6.90442C10.6522 6.96182 10.6112 7.02742 10.5866 7.10942L7.26562 17.3266H14.99L12.3414 9.18402L11.669 7.10942C11.6526 7.06842 11.6362 7.02742 11.6116 6.98642C11.5378 6.87162 11.4394 6.78962 11.3164 6.74862C11.259 6.72402 11.1934 6.71582 11.1278 6.71582Z" fill="#E24329"/>
</g>
<mask id="mask5_3432_2645" style="mask-type:luminance" maskUnits="userSpaceOnUse" x="5" y="6" width="31" height="29">
<path d="M5.53516 6.71582H35.4652V34.2842H5.53516V6.71582Z" fill="white"/>
</mask>
<g mask="url(#mask5_3432_2645)">
<path d="M33.7348 17.3267H26.0104L22.3368 28.6345L20.5 34.2843L33.7348 17.3267Z" fill="#FC6D26"/>
</g>
<mask id="mask6_3432_2645" style="mask-type:luminance" maskUnits="userSpaceOnUse" x="5" y="6" width="31" height="29">
<path d="M5.53516 6.71582H35.4652V34.2842H5.53516V6.71582Z" fill="white"/>
</mask>
<g mask="url(#mask6_3432_2645)">
<path d="M33.7348 17.3267L20.5 34.2843L34.9976 23.7555C35.137 23.6571 35.2436 23.5259 35.3256 23.3865C35.4158 23.2225 35.465 23.0339 35.465 22.8371V22.8289C35.465 22.7141 35.4486 22.5993 35.4076 22.4845L33.7348 17.3267Z" fill="#FCA326"/>
</g>
<mask id="mask7_3432_2645" style="mask-type:luminance" maskUnits="userSpaceOnUse" x="5" y="6" width="31" height="29">
<path d="M5.53516 6.71582H35.4652V34.2842H5.53516V6.71582Z" fill="white"/>
</mask>
<g mask="url(#mask7_3432_2645)">
<path d="M29.872 6.71582C29.8064 6.71582 29.7326 6.72402 29.667 6.74862C29.5194 6.80602 29.3882 6.92082 29.3308 7.10942L26.0098 17.3266H33.7342L30.4132 7.10942C30.3312 6.84702 30.1016 6.71582 29.872 6.71582Z" fill="#E24329"/>
</g>
</svg>
