<svg width="41" height="41" viewBox="0 0 41 41" fill="none" xmlns="http://www.w3.org/2000/svg">
<path d="M20.361 1.1626C20.0085 1.18035 19.6633 1.26772 19.3453 1.4196L5.48608 8.04169C5.12739 8.21301 4.81221 8.46228 4.56397 8.77098C4.31574 9.07969 4.14081 9.4399 4.0522 9.82486L0.632987 24.6997C0.554035 25.0425 0.545201 25.3974 0.607008 25.7436C0.668815 26.0897 0.800007 26.4201 0.992821 26.7151C1.03957 26.7872 1.08984 26.857 1.14347 26.9242L10.7363 38.8514C10.9846 39.16 11.2998 39.4092 11.6585 39.5804C12.0172 39.7517 12.4102 39.8405 12.8083 39.8405L28.1919 39.837C28.5899 39.8372 28.9828 39.7486 29.3415 39.5777C29.7002 39.4068 30.0155 39.158 30.264 38.8497L39.8533 26.9207C40.1017 26.6119 40.2768 26.2515 40.3654 25.8664C40.4541 25.4813 40.4541 25.0813 40.3655 24.6962L36.9411 9.82128C36.8525 9.43633 36.6775 9.07613 36.4293 8.76743C36.181 8.45874 35.8658 8.20948 35.5071 8.03817L21.6461 1.41954C21.2462 1.22851 20.8043 1.14016 20.361 1.1626Z" fill="#326CE5"/>
<path d="M20.4987 6.2251C20.0406 6.22515 19.6691 6.63779 19.6692 7.1468C19.6692 7.15463 19.6708 7.16212 19.6709 7.16983C19.6703 7.23903 19.6669 7.32235 19.6692 7.38253C19.6801 7.67611 19.7441 7.90084 19.7826 8.17134C19.8524 8.75023 19.9108 9.23014 19.8748 9.67618C19.8396 9.84436 19.7158 9.99818 19.6054 10.1051L19.5859 10.4561C19.0812 10.4976 18.5801 10.5746 18.0863 10.6865C15.9324 11.1756 14.0779 12.2851 12.666 13.7831C12.5652 13.7135 12.4654 13.6426 12.3665 13.5704C12.2183 13.5904 12.0687 13.6361 11.8737 13.5225C11.5024 13.2726 11.1643 12.9277 10.7552 12.5122C10.5678 12.3134 10.432 12.1242 10.2093 11.9326C10.1587 11.8891 10.0815 11.8302 10.0249 11.7854C9.85081 11.6466 9.64548 11.5742 9.44713 11.5675C9.19212 11.5587 8.94663 11.6584 8.786 11.8599C8.50036 12.2181 8.59179 12.7656 8.9898 13.0829C8.99382 13.0861 8.99814 13.0886 9.00222 13.0918C9.0569 13.1361 9.12388 13.193 9.17414 13.23C9.41049 13.4046 9.62637 13.4939 9.86187 13.6324C10.358 13.9388 10.7693 14.1928 11.0955 14.4992C11.2229 14.635 11.2452 14.8743 11.2622 14.9778L11.528 15.2153C10.1047 17.3572 9.446 20.003 9.83533 22.6988L9.48792 22.7998C9.39631 22.9181 9.26693 23.1041 9.1316 23.1597C8.70478 23.2941 8.22441 23.3434 7.64451 23.4042C7.37225 23.4269 7.13726 23.4134 6.84861 23.4681C6.78508 23.4801 6.6966 23.5032 6.62706 23.5194L6.61997 23.5213C6.61617 23.5221 6.61118 23.524 6.60755 23.5248C6.11862 23.6429 5.80456 24.0923 5.90563 24.5351C6.00677 24.978 6.48435 25.2473 6.97623 25.1413C6.9798 25.1405 6.98496 25.1403 6.98865 25.1395C6.99421 25.1383 6.99909 25.1356 7.00459 25.1342C7.07322 25.1192 7.15909 25.1024 7.2191 25.0864C7.50288 25.0104 7.70837 24.8988 7.96356 24.801C8.51238 24.6042 8.967 24.4397 9.40992 24.3756C9.59483 24.3611 9.78978 24.4897 9.88671 24.544L10.2483 24.4819C11.0804 27.0617 12.8242 29.1469 15.0323 30.4553L14.8816 30.8169C14.936 30.9573 14.9958 31.1472 14.9553 31.286C14.7944 31.7034 14.5186 32.1441 14.2045 32.6355C14.0525 32.8625 13.8968 33.0386 13.7596 33.2984C13.7268 33.3606 13.685 33.4561 13.6533 33.5217C13.4401 33.9779 13.5964 34.5033 14.006 34.7005C14.4182 34.8988 14.9297 34.6896 15.151 34.2325C15.1514 34.2318 15.1525 34.2314 15.1528 34.2307C15.153 34.2302 15.1526 34.2295 15.1528 34.229C15.1843 34.1642 15.229 34.079 15.2556 34.018C15.3732 33.7488 15.4123 33.518 15.4949 33.2576C15.7144 32.7063 15.835 32.1278 16.1371 31.7674C16.2199 31.6687 16.3548 31.6307 16.4946 31.5932L16.6825 31.2529C18.6075 31.9918 20.7622 32.1901 22.9146 31.7014C23.3984 31.5914 23.874 31.448 24.338 31.2724C24.3907 31.3661 24.4889 31.5461 24.5152 31.5915C24.6573 31.6377 24.8124 31.6616 24.9389 31.8485C25.1649 32.2347 25.3194 32.6916 25.5078 33.2434C25.5905 33.5038 25.6313 33.7346 25.7489 34.0038C25.7756 34.0652 25.8201 34.1516 25.8517 34.2165C26.0726 34.6751 26.5858 34.8851 26.9985 34.6863C27.408 34.489 27.5645 33.9637 27.3512 33.5075C27.3195 33.4419 27.276 33.3464 27.2431 33.2842C27.1058 33.0244 26.9503 32.85 26.7982 32.6231C26.4841 32.1318 26.2236 31.7236 26.0626 31.3061C25.9953 31.0907 26.0739 30.9568 26.1264 30.8169C26.095 30.7809 26.0278 30.5775 25.9882 30.4819C28.2829 29.1269 29.9755 26.964 30.7704 24.466C30.8777 24.4829 31.0643 24.5159 31.1249 24.528C31.2497 24.4458 31.3643 24.3384 31.5893 24.3561C32.0322 24.4202 32.4868 24.5847 33.0357 24.7815C33.2908 24.8792 33.4963 24.9927 33.7801 25.0686C33.8401 25.0847 33.926 25.0997 33.9946 25.1148C34.0001 25.1161 34.005 25.1188 34.0105 25.12C34.0143 25.1209 34.0194 25.121 34.0229 25.1218C34.5148 25.2277 34.9925 24.9585 35.0935 24.5156C35.1945 24.0728 34.8806 23.6233 34.3916 23.5053C34.3205 23.4891 34.2196 23.4616 34.1506 23.4486C33.8619 23.3939 33.627 23.4074 33.3547 23.3848C32.7748 23.324 32.2944 23.2746 31.8676 23.1402C31.6935 23.0727 31.5697 22.8656 31.5095 22.7803L31.1745 22.6829C31.3482 21.4262 31.3014 20.1184 31.0008 18.8099C30.6974 17.4892 30.1614 16.2813 29.4463 15.2171C29.5322 15.1389 29.6946 14.9952 29.7406 14.9529C29.754 14.8041 29.7424 14.6481 29.8965 14.4832C30.2227 14.1769 30.6341 13.9229 31.1302 13.6165C31.3657 13.4779 31.5834 13.3886 31.8197 13.2141C31.8731 13.1746 31.9462 13.1121 32.0023 13.067C32.4002 12.7496 32.4918 12.2021 32.2061 11.844C31.9204 11.4858 31.3668 11.452 30.9689 11.7695C30.9123 11.8144 30.8354 11.8729 30.7846 11.9166C30.5619 12.1082 30.4243 12.2975 30.2369 12.4963C29.8277 12.9118 29.4896 13.2585 29.1184 13.5084C28.9575 13.602 28.7219 13.5696 28.615 13.5633L28.2995 13.7884C26.5004 11.9019 24.0509 10.6957 21.4133 10.4614C21.406 10.3509 21.3963 10.1511 21.3938 10.0909C21.2858 9.98763 21.1554 9.89944 21.1227 9.67618C21.0865 9.23014 21.1468 8.75023 21.2166 8.17134C21.2551 7.90084 21.3191 7.67617 21.33 7.38253C21.3325 7.31583 21.3285 7.21895 21.3283 7.1468C21.3282 6.63779 20.9569 6.2251 20.4987 6.2251ZM19.46 12.6593L19.2136 17.0108L19.1959 17.0197C19.1794 17.409 18.859 17.7198 18.4657 17.7198C18.3045 17.7198 18.1558 17.6681 18.0349 17.5798L18.0278 17.5833L14.4598 15.0539C15.5564 13.9757 16.959 13.1788 18.5755 12.8118C18.8675 12.7459 19.1628 12.695 19.46 12.6593ZM21.5392 12.6593C23.4265 12.8914 25.1718 13.746 26.5093 15.0558L22.9642 17.5691L22.9519 17.5639C22.6372 17.7936 22.1939 17.7366 21.9486 17.4292C21.8517 17.3085 21.7958 17.1601 21.7891 17.0055L21.7855 17.0038L21.5392 12.6593ZM13.1658 16.6794L16.4237 19.5934L16.4201 19.6111C16.7142 19.8667 16.7576 20.3103 16.5123 20.6179C16.4156 20.7393 16.2828 20.8268 16.133 20.8678L16.1295 20.8819L11.9534 22.0873C11.7409 20.1437 12.199 18.2545 13.1658 16.6794ZM27.8086 16.6811C28.2926 17.4657 28.6591 18.342 28.8773 19.292C29.0929 20.2306 29.147 21.1676 29.0582 22.0731L24.8609 20.8643L24.8573 20.8465C24.4815 20.7438 24.2504 20.3615 24.338 19.978C24.372 19.8272 24.4534 19.6911 24.5702 19.5898L24.5684 19.581L27.8086 16.6811V16.6811ZM19.8305 19.8184H21.1652L21.9947 20.8554L21.6969 22.1493L20.4987 22.7254L19.2969 22.1475L18.9992 20.8536L19.8305 19.8184ZM24.1093 23.367C24.166 23.3642 24.2225 23.3693 24.2777 23.3795L24.2848 23.3706L28.6044 24.1008C27.9722 25.877 26.7625 27.4156 25.1462 28.4453L23.4695 24.3951L23.4747 24.388C23.3207 24.0301 23.4748 23.6104 23.8292 23.4397C23.92 23.396 24.0148 23.3718 24.1093 23.367ZM16.8545 23.3847C17.1841 23.3894 17.4797 23.6182 17.5564 23.9537C17.5922 24.1109 17.5747 24.2664 17.5155 24.4039L17.528 24.4199L15.8689 28.4293C14.3178 27.4339 13.0823 25.9436 12.4214 24.115L16.7038 23.3883L16.7108 23.3972C16.7588 23.3884 16.8073 23.3841 16.8545 23.3847ZM20.4721 25.1414C20.5903 25.1372 20.7078 25.1622 20.8142 25.214C20.9594 25.2839 21.0716 25.394 21.1421 25.5259H21.1581L23.2691 29.3404C22.992 29.433 22.7104 29.5117 22.4254 29.5761C20.8109 29.9427 19.2015 29.8316 17.7443 29.3351L19.85 25.5277H19.8535C19.9139 25.4149 20.0028 25.3198 20.1113 25.252C20.2198 25.1842 20.3442 25.146 20.4721 25.1413L20.4721 25.1414Z" fill="white" stroke="white" stroke-width="0.276684"/>
</svg>
