<svg width="41" height="41" viewBox="0 0 41 41" fill="none" xmlns="http://www.w3.org/2000/svg">
<g clip-path="url(#clip0_3432_2588)">
<path d="M16.7363 39.7752C13.3251 39.0699 10.142 37.4965 7.64317 35.2805C1.22801 29.5916 -0.754617 20.6546 2.63437 12.7027C3.46661 10.7499 4.81962 8.76808 6.49604 7.04635L7.974 5.52845L8.07824 14.4127C8.17802 22.9165 8.20051 23.3449 8.60337 24.4165C9.40934 26.5603 10.2734 27.9252 11.7609 29.4043C15.6032 33.2251 21.2392 34.1787 26.0303 31.8186C30.5336 29.6003 33.3727 24.7767 33.0427 19.9045C32.8211 16.6318 31.7189 14.232 29.339 11.8409C27.5395 10.0328 25.4223 8.85183 23.1173 8.37028C20.7721 7.88033 20.8846 7.80874 20.8846 9.79078V11.5019L22.1703 11.7385C27.1495 12.6545 30.4426 17.5365 29.4047 22.4635C29.0733 24.0371 28.3339 25.4267 27.147 26.7067C25.3434 28.6519 22.8057 29.5817 20.59 29.5774C16.9262 29.5704 13.8668 27.4916 12.384 24.4174C12.384 24.4174 11.9956 23.5387 11.8708 22.9958C11.1367 19.8025 11.6059 13.0806 11.6059 13.0806L11.5491 3.2519L12.1302 2.95186C12.4498 2.78683 12.7563 2.65181 12.8113 2.65181C12.8664 2.65181 12.9362 7.16611 12.9666 12.6836C12.9666 12.6836 12.2609 19.9163 13.133 22.6879C13.2588 23.0878 13.4976 23.7718 13.4976 23.7718C14.2621 25.3268 15.4873 26.6947 17.0792 27.4476C18.2876 28.0192 18.896 28.2778 20.6838 28.2778C21.8519 28.2778 22.8866 27.9097 24.0773 27.3629C25.4809 26.7183 27.0911 25.0093 27.6861 23.449C29.3254 19.15 27.0428 14.5248 22.6452 13.2352C20.848 12.7081 20.8846 12.679 20.8846 14.6303V16.3348L21.7473 16.5652C24.857 17.3956 25.8059 21.5574 23.3647 23.6959C22.5022 24.4514 21.725 24.7854 20.3655 24.7854C18.9128 24.7854 17.5183 23.9074 16.8015 22.5608C16.3708 21.7519 16.3345 20.9847 16.3345 20.6333C16.3345 17.3873 16.2641 11.5495 16.2641 11.5495L16.2059 1.53556L16.6523 1.42484C16.8979 1.36395 17.8903 1.21327 18.8578 1.09C22.1388 0.671935 26.9928 1.74405 30.2539 3.60705C34.6998 6.14696 38.0638 10.5102 39.4645 15.5533C39.9463 17.288 40 17.7924 40 20.583C40 23.3611 39.9451 23.8822 39.4735 25.579C37.5685 32.4333 32.7225 37.3331 25.7934 39.4112C24.3351 39.8486 23.652 39.932 21.0788 39.9868C19.0022 40.031 17.6563 39.9654 16.7363 39.7752Z" fill="#C60C30"/>
</g>
<defs>
<clipPath id="clip0_3432_2588">
<rect width="39" height="39" fill="white" transform="translate(1 1)"/>
</clipPath>
</defs>
</svg>
